<?xml version="1.0" encoding="utf-8"?>
<!-- Generator: Adobe Illustrator 15.1.0, SVG Export Plug-In . SVG Version: 6.00 Build 0)  -->
<!DOCTYPE svg PUBLIC "-//W3C//DTD SVG 1.1//EN" "http://www.w3.org/Graphics/SVG/1.1/DTD/svg11.dtd">
<svg version="1.1" id="Ebene_2" xmlns="http://www.w3.org/2000/svg" xmlns:xlink="http://www.w3.org/1999/xlink" x="0px" y="0px"
	 width="1417.32px" height="1417.32px" viewBox="0 0 1417.32 1417.32" enable-background="new 0 0 1417.32 1417.32"
	 xml:space="preserve">
<g>
	<g>
		<polygon fill="#1D1D1B" points="391.733,443.945 391.733,444.161 804.843,205.669 804.843,711.045 804.843,1216.422 
			391.733,977.887 391.733,978.074 140.561,978.074 140.561,818.892 140.561,603.19 140.561,443.945 		"/>
	</g>
</g>
<g>
	<g>
		<path fill="#1D1D1B" d="M1085.105,711.006c0,101.175-39.098,193.162-102.911,261.867l46.857,46.036
			c75.484-80.522,121.818-188.798,121.818-307.903c0-119.068-46.334-227.303-121.818-307.865l-46.857,46.036
			C1046.008,517.869,1085.105,609.899,1085.105,711.006z"/>
	</g>
</g>
<g>
	<g>
		<path fill="#1D1D1B" d="M967.808,711.006c0,74.705-28.836,142.639-75.979,193.359l34.629,34.021
			c55.736-59.445,89.892-139.431,89.892-227.381c0-87.922-34.155-167.826-89.892-227.345l-34.629,33.993
			C938.972,568.405,967.808,636.34,967.808,711.006z"/>
	</g>
</g>
<g>
	<g>
		<path fill="#1D1D1B" d="M1221.281,711.006c0,136.677-52.798,260.984-139.031,353.825l63.328,62.2
			c101.956-108.791,164.558-255.097,164.558-416.025c0-160.891-62.602-307.117-164.558-416.009l-63.328,62.2
			C1168.483,450.029,1221.281,574.366,1221.281,711.006z"/>
	</g>
</g>
</svg>
